<svg width="63" height="59" viewBox="0 0 63 59" xmlns="http://www.w3.org/2000/svg"><title>toastmasters-confidence-icon</title><g id="Symbols" fill="none" fill-rule="evenodd"><g id="Pro-4"><g id="toastmasters-confidence-icon"><path d="M11.5.758c-2.61 0-4.733 2.1-4.733 4.68v1.074c0 2.153 1.39 4.03 3.378 4.565.407.11.827.165 1.25.165h.213c.556 0 1.106-.097 1.63-.29 1.792-.652 2.995-2.435 2.995-4.437V5.438c0-2.58-2.123-4.68-4.733-4.68M11.608 12h-.214a5.57 5.57 0 0 1-1.45-.192C7.622 11.184 6 9.006 6 6.512V5.438C6 2.438 8.467 0 11.5 0 14.532 0 17 2.44 17 5.438v1.077c0 2.318-1.405 4.387-3.497 5.15a5.51 5.51 0 0 1-1.895.335" id="Fill-1" fill="#53595A"/><path d="M17.556 38v-.76c2.025 0 3.672-1.624 3.672-3.618V20.835c0-3.35-2.766-6.074-6.166-6.074H6.938c-3.4 0-6.166 2.725-6.166 6.075v12.787c0 1.994 1.648 3.617 3.672 3.617l.007.76C1.994 38 0 36.036 0 33.622V20.835C0 17.065 3.112 14 6.938 14h8.124C18.888 14 22 17.066 22 20.835v12.787C22 36.036 20.007 38 17.556 38" id="Fill-3" fill="#53595A"/><path id="Fill-5" fill="#53595A" d="M18 59h-6.298V38.035h-1.405V59H4V22h.762v36.23h4.773V37.263h2.93V58.23h4.773V22H18z"/><path d="M37.5 21a13.414 13.414 0 0 0-9.547 3.954A13.415 13.415 0 0 0 24 34.5c0 3.606 1.404 6.996 3.953 9.546A13.414 13.414 0 0 0 37.5 48a13.41 13.41 0 0 0 9.546-3.954A13.414 13.414 0 0 0 51 34.5c0-3.605-1.405-6.996-3.954-9.546A13.41 13.41 0 0 0 37.5 21" id="Fill-9" stroke="#53595A"/><path d="M37.5 24c-2.805 0-5.44 1.092-7.425 3.075A10.434 10.434 0 0 0 27 34.5c0 2.805 1.092 5.44 3.075 7.425A10.433 10.433 0 0 0 37.5 45a10.43 10.43 0 0 0 7.424-3.075A10.433 10.433 0 0 0 48 34.5c0-2.804-1.093-5.44-3.076-7.425A10.43 10.43 0 0 0 37.5 24" id="Fill-9" stroke="#53595A"/><path id="Fill-11" fill="#53595A" d="M51.116 50L46 44.884l.526-.526 4.59 4.59 1.833-1.832-4.592-4.59.527-.526L54 47.116z"/><path d="M51.115 49.682l8.202 8.203 2.57-2.568-8.203-8.202-2.57 2.567zM59.317 59L50 49.682 53.684 46 63 55.317 59.317 59z" id="Fill-13" fill="#53595A"/><path id="Fill-17" fill="#770D29" d="M37 41h1V27h-1z"/><path id="Fill-19" fill="#770D29" d="M31 35h14v-1H31z"/></g></g></g></svg>