<svg width="62" height="62" viewBox="0 0 62 62" xmlns="http://www.w3.org/2000/svg" xmlns:xlink="http://www.w3.org/1999/xlink"><title>toastmasters-leadership-skills-icon</title><defs><path id="path-1" d="M.224.454h8.348v9.1H.224z"/></defs><g id="Symbols" fill="none" fill-rule="evenodd"><g id="Pro-5"><g id="toastmasters-leadership-skills-icon"><path id="Fill-1" fill="#770D29" d="M0 23.51l25.196 24.6 11.58-10.224L61.477 62l.524-.51-25.197-24.6-11.58 10.224L.522 23z"/><path id="Fill-2" fill="#770D29" d="M0 23v15h.743V23.743H15V23z"/><g id="Group-16"><path d="M17.748 10.21l-4.333 1.227c-.46.13-.852.38-1.155.703l-4.858 1.374-2.435-2.875a2.178 2.178 0 0 0-1.48-.766 2.17 2.17 0 0 0-1.596.496l-.645.535 4.15 4.902c.576.68 1.5.96 2.365.717l4.156-1.174.2.696-4.154 1.174a3.015 3.015 0 0 1-3.126-.95l-4.62-5.454 1.205-1a2.92 2.92 0 0 1 2.13-.664 2.91 2.91 0 0 1 1.978 1.02l2.13 2.516 9.99-2.826.1.348zm.044.153l.057.195-.058-.195zm1.01 3.51l.076.26-.076-.26z" id="Combined-Shape" fill="#53595A" transform="translate(24)"/><path d="M17.847 10.553l-.098-.343-4.335 1.227a2.5 2.5 0 0 0-1.734 3.092l.435 1.515-.42.12-.383-1.332c-.466-1.623.488-3.318 2.127-3.78L21.96 8.63a3.024 3.024 0 0 1 3.13.946l4.618 5.456-1.205.998a2.91 2.91 0 0 1-2.128.664 2.902 2.902 0 0 1-1.98-1.02l-2.13-2.515-3.393.963-.096-.335-.104-.36 3.85-1.096 2.434 2.876c.375.442.9.714 1.483.765a2.176 2.176 0 0 0 1.595-.497l.645-.535-4.148-4.898a2.287 2.287 0 0 0-2.368-.716l-4.317 1.227z" id="Combined-Shape" fill="#53595A" transform="translate(24)"/><g id="Group-9" transform="translate(32.78)"><mask id="mask-2" fill="#fff"><use xlink:href="#path-1"/></mask><path d="M4.397 1.178C2.5 1.178.955 2.706.955 4.585v.8c0 1.57 1.01 2.935 2.455 3.324.3.08.604.12.91.12h.158c.405 0 .803-.07 1.185-.21C6.966 8.144 7.84 6.845 7.84 5.387v-.803c0-1.88-1.544-3.407-3.443-3.407m.08 8.376H4.32c-.37 0-.74-.05-1.1-.146C1.454 8.934.223 7.28.223 5.386v-.8c0-2.278 1.87-4.132 4.173-4.132 2.302 0 4.175 1.854 4.175 4.13v.804c0 1.76-1.067 3.332-2.656 3.91-.463.17-.946.256-1.438.256" id="Fill-7" fill="#53595A" mask="url(#mask-2)"/></g><path d="M23.54 41.855l-7.546-7.405a3.01 3.01 0 0 1-.9-2.135v-5.07h.733v5.07c0 .604.25 1.195.682 1.62l7.027 6.898 2.417-2.39-6.712-6.643v-4.62h.732v4.32l7.014 6.942-3.448 3.413z" id="Fill-10" fill="#53595A" transform="translate(24)"/><path d="M11.363 35.355H6.485v-9.52c0-1.658 1.36-3.006 3.037-3.006h4.155l-2.348-8.202c-.438-1.517.453-3.104 1.985-3.538l4.333-1.228.2.696-4.332 1.227a2.14 2.14 0 0 0-1.483 2.644l2.612 9.123H9.522c-1.272 0-2.306 1.023-2.306 2.28v8.798h3.415v-7.698h7.412c1.114 0 2.038-.407 2.604-1.15.564-.74.706-1.733.4-2.793l-2.69-9.474.703-.2 2.69 9.474c.37 1.283.186 2.5-.52 3.428-.706.928-1.84 1.438-3.188 1.438h-6.68v7.7z" id="Fill-14" fill="#53595A" transform="translate(24)"/></g></g></g></g></svg>