<svg width="56" height="64" viewBox="0 0 56 64" xmlns="http://www.w3.org/2000/svg" xmlns:xlink="http://www.w3.org/1999/xlink"><title>toastmasters-networking-icon</title><defs><path id="path-1" d="M0 64h56V0H0z"/></defs><g id="Symbols" fill="none" fill-rule="evenodd"><g id="Pro-1"><g id="toastmasters-networking-icon"><path d="M10 6.72a4.277 4.277 0 0 0-4.278 4.266v.982c0 1.963 1.256 3.674 3.054 4.16.37.102.75.152 1.128.152h.195c.5 0 .996-.09 1.472-.264 1.618-.594 2.706-2.22 2.706-4.045v-.984A4.277 4.277 0 0 0 10 6.72M10.1 17h-.196c-.442 0-.885-.06-1.317-.176C6.474 16.25 5 14.254 5 11.968v-.982C5 8.236 7.243 6 10 6s5 2.236 5 4.986v.985c0 2.125-1.277 4.023-3.18 4.723A4.98 4.98 0 0 1 10.1 17" id="Fill-1" fill="#53595A"/><path d="M15.154 39v-.69a3.155 3.155 0 0 0 3.154-3.15V23.986c0-2.92-2.38-5.295-5.305-5.295H5.997c-2.926 0-5.305 2.376-5.305 5.296V35.16a3.155 3.155 0 0 0 3.154 3.15l.006.69A3.848 3.848 0 0 1 0 35.16V23.986C0 20.686 2.69 18 5.997 18h7.006C16.31 18 19 20.685 19 23.986V35.16A3.847 3.847 0 0 1 15.154 39" id="Fill-3" fill="#53595A"/><path id="Fill-5" fill="#53595A" d="M16 57h-5.412V38.875H9.41V57H4V25h.677v31.308h4.057V38.182h2.53v18.126h4.06V25H16z"/><path d="M36 55h-4.925C29.38 55 28 53.606 28 51.89V12.11C28 10.394 29.38 9 31.075 9H36v.702h-4.925c-1.313 0-2.38 1.08-2.38 2.406V51.89c0 1.328 1.067 2.408 2.38 2.408H36V55z" id="Fill-7" fill="#770D29"/><mask id="mask-2" fill="#fff"><use xlink:href="#path-1"/></mask><path id="Fill-9" fill="#770D29" mask="url(#mask-2)" d="M21 31.75h15V31H21z"/><g id="Group" mask="url(#mask-2)"><path d="M9.5 4.675a2.885 2.885 0 0 0-1.956.74c-.52.476-.804 1.106-.802 1.776l.002.606c.003 1.155.815 2.16 1.973 2.442.235.058.476.087.72.087h.138c.325-.002.644-.054.95-.158 1.04-.352 1.737-1.31 1.733-2.385l-.002-.606c-.003-.67-.29-1.3-.814-1.77a2.88 2.88 0 0 0-1.942-.73M9.438 11a3.79 3.79 0 0 1-.914-.11c-1.48-.362-2.517-1.634-2.522-3.092L6 7.193c-.003-.85.358-1.65 1.017-2.254A3.658 3.658 0 0 1 9.487 4c.943 0 1.82.328 2.478.925.663.6 1.03 1.398 1.033 2.25L13 7.78c.005 1.356-.886 2.57-2.217 3.02-.387.132-.793.2-1.206.2h-.14" id="Fill-14" fill="#53595A" transform="translate(37 22)"/><path d="M16.304 16h-.695v-1.12c0-1.213-1.312-2.2-2.55-2.2H6.015c-1.238 0-2.663.987-2.663 2.2V16h-.695v-1.12c0-1.59 1.737-2.88 3.358-2.88h7.045c1.622 0 3.244 1.29 3.244 2.88V16z" id="Fill-15" fill="#53595A" transform="translate(37 22)"/><path d="M9.5.696C4.645.696.696 4.646.696 9.5c0 4.855 3.95 8.804 8.804 8.804 4.855 0 8.804-3.95 8.804-8.804 0-4.855-3.95-8.804-8.804-8.804M9.5 19C4.262 19 0 14.738 0 9.5S4.262 0 9.5 0 19 4.262 19 9.5 14.738 19 9.5 19" id="Fill-16" fill="#770D29" transform="translate(37 22)"/></g><g id="Group-Copy-2" mask="url(#mask-2)"><path d="M9.5 4.675a2.885 2.885 0 0 0-1.956.74c-.52.476-.804 1.106-.802 1.776l.002.606c.003 1.155.815 2.16 1.973 2.442.235.058.476.087.72.087h.138c.325-.002.644-.054.95-.158 1.04-.352 1.737-1.31 1.733-2.385l-.002-.606c-.003-.67-.29-1.3-.814-1.77a2.88 2.88 0 0 0-1.942-.73M9.438 11a3.79 3.79 0 0 1-.914-.11c-1.48-.362-2.517-1.634-2.522-3.092L6 7.193c-.003-.85.358-1.65 1.017-2.254A3.658 3.658 0 0 1 9.487 4c.943 0 1.82.328 2.478.925.663.6 1.03 1.398 1.033 2.25L13 7.78c.005 1.356-.886 2.57-2.217 3.02-.387.132-.793.2-1.206.2h-.14" id="Fill-14" fill="#53595A" transform="translate(37 45)"/><path d="M16.304 16h-.695v-1.12c0-1.213-1.312-2.2-2.55-2.2H6.015c-1.238 0-2.663.987-2.663 2.2V16h-.695v-1.12c0-1.59 1.737-2.88 3.358-2.88h7.045c1.622 0 3.244 1.29 3.244 2.88V16z" id="Fill-15" fill="#53595A" transform="translate(37 45)"/><path d="M9.5.696C4.645.696.696 4.646.696 9.5c0 4.855 3.95 8.804 8.804 8.804 4.855 0 8.804-3.95 8.804-8.804 0-4.855-3.95-8.804-8.804-8.804M9.5 19C4.262 19 0 14.738 0 9.5S4.262 0 9.5 0 19 4.262 19 9.5 14.738 19 9.5 19" id="Fill-16" fill="#770D29" transform="translate(37 45)"/></g><g id="Group-Copy" mask="url(#mask-2)"><path d="M9.5 4.675a2.885 2.885 0 0 0-1.956.74c-.52.476-.804 1.106-.802 1.776l.002.606c.003 1.155.815 2.16 1.973 2.442.235.058.476.087.72.087h.138c.325-.002.644-.054.95-.158 1.04-.352 1.737-1.31 1.733-2.385l-.002-.606c-.003-.67-.29-1.3-.814-1.77a2.88 2.88 0 0 0-1.942-.73M9.438 11a3.79 3.79 0 0 1-.914-.11c-1.48-.362-2.517-1.634-2.522-3.092L6 7.193c-.003-.85.358-1.65 1.017-2.254A3.658 3.658 0 0 1 9.487 4c.943 0 1.82.328 2.478.925.663.6 1.03 1.398 1.033 2.25L13 7.78c.005 1.356-.886 2.57-2.217 3.02-.387.132-.793.2-1.206.2h-.14" id="Fill-14" fill="#53595A" transform="translate(37)"/><path d="M16.304 16h-.695v-1.12c0-1.213-1.312-2.2-2.55-2.2H6.015c-1.238 0-2.663.987-2.663 2.2V16h-.695v-1.12c0-1.59 1.737-2.88 3.358-2.88h7.045c1.622 0 3.244 1.29 3.244 2.88V16z" id="Fill-15" fill="#53595A" transform="translate(37)"/><path d="M9.5.696C4.645.696.696 4.646.696 9.5c0 4.855 3.95 8.804 8.804 8.804 4.855 0 8.804-3.95 8.804-8.804 0-4.855-3.95-8.804-8.804-8.804M9.5 19C4.262 19 0 14.738 0 9.5S4.262 0 9.5 0 19 4.262 19 9.5 14.738 19 9.5 19" id="Fill-16" fill="#770D29" transform="translate(37)"/></g></g></g></g></svg>