<svg width="66" height="49" viewBox="0 0 66 49" xmlns="http://www.w3.org/2000/svg" xmlns:xlink="http://www.w3.org/1999/xlink"><title>toastmasters-personal-growth-icon</title><defs><path id="path-1" d="M.282.49H10.48v10.228H.282z"/></defs><g id="Symbols" fill="none" fill-rule="evenodd"><g id="Pro-6"><g id="toastmasters-personal-growth-icon"><path d="M36.033 29L36 27.693a3.94 3.94 0 0 1 1.094-2.84 3.843 3.843 0 0 1 2.764-1.202h4.666l3.46-3.993.516.343-3.642 4.277H39.86a3.236 3.236 0 0 0-2.322 1.01 3.314 3.314 0 0 0-.918 2.39l.016.697h8.922c.67 0 1.3-.333 1.68-.892l2.253-3.3.51.355-2.254 3.302A2.652 2.652 0 0 1 45.558 29h-9.525z" id="Fill-3" fill="#53595A"/><path d="M37.147 19.12l.687.41.163 1.117a.307.307 0 0 1-.307.353.316.316 0 0 1-.1-.017l-14.38-4.92a.307.307 0 0 1-.114-.515L35.09 4.088a.31.31 0 0 1 .523.178l1.325 9.107a3.934 3.934 0 0 0-.64-.096L35.085 4.95 23.893 15.642l13.416 4.59-.163-1.112z" id="Combined-Shape" fill="#772432"/><path d="M45.563 48.393h4.71v-12.54l7.3-5.975c1.643-1.29 2.237-3.44 1.482-5.355l-5.012-10.97c-.447-.98-1.322-1.663-2.4-1.877a3.386 3.386 0 0 0-2.965.813l-5.515 5.003L38.13 14.4c-1.498-.923-3.467-.536-4.482.877l-.763 1.06 9.266 5.714c.987.61 2.28.503 3.146-.258l3.005-2.596 3.44 8.95-5.447 5.13a2.32 2.32 0 0 0-.73 1.68v13.437zm5.334.607H44.94V34.955c0-.792.335-1.563.92-2.114l5.154-4.853-2.978-7.75-2.324 2.008a3.315 3.315 0 0 1-3.893.32L32 16.51l1.137-1.58c1.207-1.68 3.546-2.138 5.326-1.044l4.626 2.844 5.164-4.685a4.012 4.012 0 0 1 3.513-.964c1.278.255 2.316 1.066 2.846 2.227L59.63 24.29c.86 2.177.187 4.604-1.662 6.057l-7.07 5.788V49z" id="Fill-9" fill="#53595A"/><path d="M61.107 49l-7.366-9.69a3.66 3.66 0 0 1-.74-2.207v-3.33h.617v3.33c0 .656.217 1.303.61 1.82l6.992 9.198 3.914-3.056L58 35.596V29.64h.616v5.743L66 45.18 61.107 49z" id="Fill-11" fill="#53595A"/><g id="Group-15" transform="translate(40)"><mask id="mask-2" fill="#fff"><use xlink:href="#path-1"/></mask><path d="M1.196 6.54l.34.868c.635 1.616 2.217 2.7 3.937 2.7.516-.002 1.01-.087 1.48-.25l.182-.064A4.375 4.375 0 0 0 8.14 9.29C9.65 8.267 10.23 6.337 9.55 4.597l-.34-.864C8.39 1.646 5.925.578 3.714 1.353c-2.208.774-3.34 3.102-2.52 5.188m4.278 4.178A4.915 4.915 0 0 1 .93 7.62l-.34-.866C-.354 4.352.947 1.672 3.49.78c2.544-.89 5.382.338 6.325 2.74l.34.865c.785 1.997.11 4.22-1.64 5.402-.358.242-.747.436-1.155.58l-.182.063c-.54.19-1.11.287-1.705.288" id="Fill-13" fill="#53595A" mask="url(#mask-2)"/></g><path d="M1.03 47.395h41.94l-6.84-12.79H7.87l-6.84 12.79zM44 48H0l7.485-14h29.03L44 48z" id="Fill-16" fill="#53595A"/><path d="M8.007 34.395h27.986l-6.683-12.79H14.69l-6.683 12.79zM37 35H7l7.314-14h15.372L37 35z" id="Fill-18" fill="#53595A"/></g></g></g></svg>