<svg width="54" height="69" viewBox="0 0 54 69" xmlns="http://www.w3.org/2000/svg" xmlns:xlink="http://www.w3.org/1999/xlink"><title>toastmasters-potential-icon</title><defs><path id="path-1" d="M.673.623h24.103v43.275H.673z"/><path id="path-3" d="M0 70h54V1H0z"/></defs><g id="Symbols" fill="none" fill-rule="evenodd"><g id="Pro-7"><g id="toastmasters-potential-icon"><path d="M27 4.856c-1.745 0-3.164 1.45-3.164 3.236v.78c0 1.49.928 2.788 2.255 3.158.274.076.555.114.836.114h.15c.37 0 .736-.068 1.09-.2 1.194-.45 1.998-1.686 1.998-3.072v-.78c0-1.785-1.42-3.236-3.164-3.236M27.075 13h-.15c-.354 0-.71-.05-1.053-.145-1.69-.47-2.872-2.11-2.872-3.984v-.778C23 5.836 24.794 4 27 4c2.205 0 4 1.836 4 4.092v.78c0 1.743-1.023 3.3-2.546 3.875-.446.167-.91.253-1.38.253" id="Fill-1" fill="#770D29"/><g id="Group-5" transform="translate(14)"><mask id="mask-2" fill="#fff"><use xlink:href="#path-1"/></mask><path d="M13.864 43.083h2.954V17.84c0-.11.044-.258.123-.336l6.564-6.345c.295-.286.466-.687.466-1.1V1.438h-1.095c-.73 0-1.324.6-1.324 1.34v6.808a.41.41 0 0 1-.133.303l-3.97 3.593a.405.405 0 0 1-.27.105h-1.89l-2.226 3.162a.402.402 0 0 1-.328.17c-.22 0-.224 0-2.572-3.332H8.27a.405.405 0 0 1-.27-.105L4.033 9.89a.408.408 0 0 1-.133-.304v-6.81c0-.738-.596-1.338-1.327-1.338H1.48v8.622c0 .413.17.813.465 1.1l6.562 6.344c.08.078.124.184.124.295v25.283h2.955V29.22c0-.226.18-.408.403-.408h1.473c.223 0 .404.182.404.407v13.863zm3.357.815h-3.76a.405.405 0 0 1-.403-.408V29.626h-.666V43.49c0 .225-.18.408-.402.408h-3.76a.405.405 0 0 1-.404-.408V17.974l-6.438-6.226a2.36 2.36 0 0 1-.713-1.688V1.03c0-.225.18-.407.403-.407h1.497c1.176 0 2.132.966 2.132 2.154v6.627l3.72 3.37h1.944a.4.4 0 0 1 .327.17 879.54 879.54 0 0 0 2.03 2.873l2.025-2.873a.4.4 0 0 1 .328-.17h1.944l3.72-3.37V2.777c0-1.188.956-2.154 2.13-2.154h1.5c.22 0 .402.182.402.407v9.03c0 .634-.26 1.25-.714 1.688l-6.438 6.226V43.49c0 .225-.18.408-.403.408z" id="Fill-3" fill="#770D29" mask="url(#mask-2)"/></g><mask id="mask-4" fill="#fff"><use xlink:href="#path-3"/></mask><path d="M15.785 52.2h22.43v-7.4h-22.43v7.4zM15 53h24v-9H15v9z" id="Fill-6" fill="#53595A" mask="url(#mask-4)"/><path d="M8.798 60.2H44.2v-7.4H8.798v7.4zM8 61h37v-9H8v9z" id="Fill-8" fill="#53595A" mask="url(#mask-4)"/><path d="M.8 68.2h52.4v-7.4H.8v7.4zM0 69h54v-9H0v9z" id="Fill-9" fill="#53595A" mask="url(#mask-4)"/><path d="M12.877 25.27l.246.74 3-1.28-.245-.74-3 1.28zM12.9 27a.387.387 0 0 1-.358-.28l-.517-1.548a.49.49 0 0 1 .01-.332.406.406 0 0 1 .213-.227l3.716-1.585a.345.345 0 0 1 .294.01.417.417 0 0 1 .2.242l.517 1.548c.075.224-.026.474-.223.56l-3.716 1.584A.365.365 0 0 1 12.9 27z" id="Fill-10" fill="#770D29" mask="url(#mask-4)"/><path d="M8.004 14.538l2.46 2.46.533-.537-2.46-2.457-.533.535zM10.464 18a.417.417 0 0 1-.295-.12L7.12 14.83A.42.42 0 0 1 7 14.538a.42.42 0 0 1 .122-.294l1.123-1.122a.416.416 0 0 1 .587 0l3.047 3.046a.418.418 0 0 1 0 .588l-1.123 1.123a.42.42 0 0 1-.294.12z" id="Fill-11" fill="#770D29" mask="url(#mask-4)"/><path d="M.902 44.73l.602.352 1.594-2.812-.6-.353L.9 44.73zm.74 1.27a.373.373 0 0 1-.19-.053l-1.26-.74a.383.383 0 0 1-.18-.236.396.396 0 0 1 .04-.293l1.976-3.483a.378.378 0 0 1 .52-.142l1.26.74c.09.052.152.137.18.236.026.1.01.205-.04.294l-1.976 3.484a.38.38 0 0 1-.33.194z" id="Fill-12" fill="#770D29" mask="url(#mask-4)"/><path d="M9.038 33.444l2.322 2.584.602-.473L9.64 32.97l-.602.474zM11.308 37a.438.438 0 0 1-.33-.144l-2.877-3.202a.392.392 0 0 1-.1-.294.397.397 0 0 1 .154-.274l1.26-.993A.47.47 0 0 1 9.73 32c.114.01.22.06.293.144l2.876 3.202c.152.17.13.425-.053.57l-1.26.99a.45.45 0 0 1-.28.094z" id="Fill-13" fill="#770D29" mask="url(#mask-4)"/><path d="M37.877 24.73l3 1.28.246-.74-3-1.278-.246.738zM41.1 27a.362.362 0 0 1-.136-.028l-3.716-1.585c-.198-.085-.298-.334-.223-.56l.516-1.546a.415.415 0 0 1 .202-.24.34.34 0 0 1 .293-.012l3.717 1.586c.095.04.173.122.214.227a.49.49 0 0 1 .01.332l-.518 1.548a.387.387 0 0 1-.36.28z" id="Fill-14" fill="#770D29" mask="url(#mask-4)"/><path d="M43.003 16.462l.534.535 2.46-2.458-.535-.537-2.46 2.46zM43.537 18a.414.414 0 0 1-.293-.122l-1.122-1.122a.417.417 0 0 1 0-.59l3.045-3.044a.416.416 0 0 1 .588 0l1.123 1.122a.42.42 0 0 1 .122.295.42.42 0 0 1-.122.292l-3.047 3.046a.416.416 0 0 1-.293.122z" id="Fill-15" fill="#770D29" mask="url(#mask-4)"/><path d="M49.902 42.27l1.595 2.812.6-.353-1.594-2.812-.6.353zM51.357 46c-.13 0-.26-.07-.33-.194l-1.975-3.483a.392.392 0 0 1 .138-.53l1.262-.74a.375.375 0 0 1 .52.14l1.976 3.484c.05.09.065.195.04.294a.383.383 0 0 1-.18.236l-1.26.74a.37.37 0 0 1-.19.054z" id="Fill-16" fill="#770D29" mask="url(#mask-4)"/><path d="M41.038 35.556l.602.472 2.322-2.584-.602-.473-2.322 2.586zM41.692 37a.443.443 0 0 1-.277-.094l-1.26-.992a.386.386 0 0 1-.053-.568l2.876-3.204A.442.442 0 0 1 43.27 32a.467.467 0 0 1 .316.094l1.26.99c.183.145.206.4.053.57l-2.878 3.202a.443.443 0 0 1-.33.144z" id="Fill-17" fill="#770D29" mask="url(#mask-4)"/></g></g></g></svg>