<svg width="65" height="64" viewBox="0 0 65 64" xmlns="http://www.w3.org/2000/svg"><title>toastmasters-presenting-icon</title><g id="Symbols" fill="none" fill-rule="evenodd"><g id="Pro-3"><g id="toastmasters-presenting-icon"><path d="M4.74 37.26h53.52V2.757A2.02 2.02 0 0 0 56.246.74H6.755A2.02 2.02 0 0 0 4.74 2.755V37.26zM59 38H4V2.756A2.76 2.76 0 0 1 6.755 0h49.49A2.76 2.76 0 0 1 59 2.756V38z" id="Fill-3" fill="#53595A" transform="translate(1)"/><path id="Fill-7" fill="#53595A" d="M35 64h-.768V44.753h-4.464V64H29V44h6z" transform="translate(1)"/><path id="Fill-8" fill="#53595A" d="M20 33h23v-1H20z" transform="translate(1)"/><path id="Fill-9" fill="#53595A" d="M20 28h23v-1H20z" transform="translate(1)"/><path id="Fill-10" fill="#53595A" d="M30 23h13v-1H30z" transform="translate(1)"/><path id="Fill-11" fill="#53595A" d="M30 14h7v-1h-7z" transform="translate(1)"/><path id="Fill-12" fill="#53595A" d="M30 18h7v-1h-7z" transform="translate(1)"/><path d="M20.756 22.27h6.488v-8.54h-6.488v8.54zM20 23h8V13h-8v10z" id="Fill-13" fill="#53595A" transform="translate(1)"/><path d="M14.742 37.27h33.516V18.1L37.608 6.73H14.74v30.54zM49 38H14V6h23.933L49 17.815V38z" id="Fill-14" fill="#770D29" transform="translate(1)"/><path d="M38.737 18.264l8.88-.73-8.88-9.65v10.38zM49 18l-11 1V6l11 12z" id="Fill-15" fill="#770D29" transform="translate(1)"/><path id="Fill-17" stroke="#53595A" d="M0 44h63v-6H0z" transform="translate(1)"/></g></g></g></svg>