<svg width="57" height="56" viewBox="0 0 57 56" xmlns="http://www.w3.org/2000/svg" xmlns:xlink="http://www.w3.org/1999/xlink"><title>toastmasters-public-speaking-icon</title><defs><path id="path-1" d="M0 57h57V0H0z"/></defs><g id="Symbols" fill="none" fill-rule="evenodd"><g id="Pro-8"><g id="toastmasters-public-speaking-icon"><path d="M29 9.748c-1.802 0-3.268 1.498-3.268 3.34v.788c0 1.536.958 2.876 2.33 3.257.28.08.57.12.862.12h.152c.383 0 .762-.07 1.126-.207 1.236-.466 2.066-1.738 2.066-3.168v-.79c0-1.842-1.466-3.34-3.268-3.34M29.076 18h-.152a3.92 3.92 0 0 1-1.054-.144c-1.69-.47-2.87-2.106-2.87-3.98v-.79C25 10.834 26.794 9 29 9s4 1.833 4 4.087v.79c0 1.743-1.023 3.298-2.545 3.87-.445.168-.91.253-1.38.253" id="Fill-1" fill="#53595A"/><mask id="mask-2" fill="#fff"><use xlink:href="#path-1"/></mask><path id="Fill-3" fill="#53595A" mask="url(#mask-2)" d="M24 28h1v-4h-1z"/><path d="M36 28h-.7v-5.174c0-2.27-1.82-4.117-4.06-4.117h-.202L28.5 22.32l-2.538-3.61h-.203c-2.24 0-4.06 1.845-4.06 4.116V28H21v-5.174C21 20.166 23.135 18 25.76 18h.563l2.177 3.098L30.677 18h.564c2.625 0 4.76 2.165 4.76 4.826V28z" id="Fill-5" fill="#53595A" mask="url(#mask-2)"/><path id="Fill-6" fill="#53595A" mask="url(#mask-2)" d="M32 28h1v-4h-1z"/><path id="Fill-7" fill="#53595A" mask="url(#mask-2)" d="M28 28h1v-4h-1z"/><path d="M15.666 31.29l.144.71H0V0h57v32H40.19l.144-.71h15.96V.71H.705v30.58h14.962z" id="Combined-Shape" fill="#770D29" mask="url(#mask-2)"/><path id="Fill-10" fill="#53595A" mask="url(#mask-2)" d="M39.493 36h-1.57v-.713h1.005l1.238-6.574H15.834l1.238 6.574h2.006V36h-2.57L15 28h26z"/><path d="M19.704 55.318h17.592V31.682H19.704v23.636zM19 56h19V31H19v25z" id="Fill-11" fill="#770D29" mask="url(#mask-2)"/></g></g></g></svg>