<svg width="47" height="57" viewBox="0 0 47 57" xmlns="http://www.w3.org/2000/svg" xmlns:xlink="http://www.w3.org/1999/xlink"><title>toastmasters-workplace-icon</title><defs><path id="path-1" d="M.233.667h27.68V39H.234z"/></defs><g id="Symbols" fill="none" fill-rule="evenodd"><g id="Pro-2"><g id="toastmasters-workplace-icon"><path d="M10 .72c-2.39 0-4.337 2.116-4.337 4.716v1.078c0 2.17 1.273 4.06 3.096 4.6.373.11.757.165 1.144.165h.194c.51 0 1.012-.098 1.495-.292 1.64-.657 2.744-2.454 2.744-4.47V5.435C14.337 2.836 12.39.72 10 .72M10.098 12h-.194a4.66 4.66 0 0 1-1.32-.192C6.475 11.184 5 9.008 5 6.514V5.436C5 2.438 7.243 0 10 0s5 2.438 5 5.436v1.08c0 2.32-1.277 4.387-3.178 5.148a4.604 4.604 0 0 1-1.724.336" id="Fill-1" fill="#53595A"/><g id="Group-5" fill="#53595A"><path d="M4.24 24.333c-2.34 0-4.24-1.938-4.24-4.32V7.343C0 3.618 2.97.59 6.618.59h.727l3.172 4.54 3.17-4.54h.727c3.038 0 6.195 2.16 6.938 5.173l-.68.174c-.663-2.694-3.54-4.634-6.258-4.634h-.366l-3.53 5.057-3.533-5.057h-.367C3.355 1.303.7 4.013.7 7.343v12.67c0 1.988 1.585 3.605 3.533 3.605l.006.715z" id="Fill-3" transform="translate(0 13)"/></g><g id="Group-8" transform="translate(4 18)"><mask id="mask-2" fill="#fff"><use xlink:href="#path-1"/></mask><path d="M13.425 39h-5.37a.35.35 0 0 1-.35-.348V18.936H6.303v19.716a.35.35 0 0 1-.35.348H.583a.35.35 0 0 1-.35-.348V2.592h.7v35.712h4.67V18.588a.35.35 0 0 1 .35-.348h2.102a.35.35 0 0 1 .35.348v19.716h4.67V2.477a.347.347 0 0 1 .297-.348c.18-.028.34.08.388.246l1.98 6.79a2.15 2.15 0 0 0 2.055 1.538h9.42v-1.13c0-1.322-1.082-2.397-2.41-2.397h-5.883a.35.35 0 0 1-.334-.243L16.662.878l.666-.21 1.85 5.812h5.628a3.104 3.104 0 0 1 3.108 3.093v1.48a.35.35 0 0 1-.35.348h-9.77a2.854 2.854 0 0 1-2.728-2.04l-1.29-4.43V38.65a.35.35 0 0 1-.35.348" id="Fill-6" fill="#53595A" mask="url(#mask-2)"/></g><path d="M25.365 21L25 20.64l8.78-8.63a.264.264 0 0 1 .355-.01l3.894 3.462L46.634 7l.365.36-8.78 8.632a.264.264 0 0 1-.356.01l-3.893-3.464L25.366 21z" id="Fill-9" fill="#770D29"/><path d="M47 12h-.48V7.48H42V7h4.76a.24.24 0 0 1 .24.24V12z" id="Fill-11" fill="#770D29"/><path id="Fill-13" fill="#53595A" d="M47 21H25V1h.688v19.29H47z"/></g></g></g></svg>